<?xml version="1.0" encoding="UTF-8" standalone="no"?>
<!-- Created with Inkscape (http://www.inkscape.org/) -->

<svg
   xmlns:dc="http://purl.org/dc/elements/1.1/"
   xmlns:cc="http://creativecommons.org/ns#"
   xmlns:rdf="http://www.w3.org/1999/02/22-rdf-syntax-ns#"
   xmlns:svg="http://www.w3.org/2000/svg"
   xmlns="http://www.w3.org/2000/svg"
   xmlns:sodipodi="http://sodipodi.sourceforge.net/DTD/sodipodi-0.dtd"
   xmlns:inkscape="http://www.inkscape.org/namespaces/inkscape"
   version="1.1"
   id="svg904"
   width="512"
   height="499.13623"
   viewBox="0 0 512 499.13623"
   sodipodi:docname="favicon.svg"
   inkscape:export-filename="/Users/my8bit/Desktop/mstile-512x512.png"
   inkscape:export-xdpi="96.000008"
   inkscape:export-ydpi="96.000008"
   inkscape:version="0.92.2 5c3e80d, 2017-08-06">
  <metadata
     id="metadata910">
    <rdf:RDF>
      <cc:Work
         rdf:about="">
        <dc:format>image/svg+xml</dc:format>
        <dc:type
           rdf:resource="http://purl.org/dc/dcmitype/StillImage" />
        <dc:title></dc:title>
      </cc:Work>
    </rdf:RDF>
  </metadata>
  <defs
     id="defs908" />
  <sodipodi:namedview
     pagecolor="#ffffff"
     bordercolor="#666666"
     borderopacity="1"
     objecttolerance="10"
     gridtolerance="10"
     guidetolerance="10"
     inkscape:pageopacity="0"
     inkscape:pageshadow="2"
     inkscape:window-width="1217"
     inkscape:window-height="712"
     id="namedview906"
     showgrid="false"
     inkscape:zoom="0.70910507"
     inkscape:cx="203.04013"
     inkscape:cy="193.44988"
     inkscape:window-x="0"
     inkscape:window-y="23"
     inkscape:window-maximized="0"
     inkscape:current-layer="svg904"
     fit-margin-top="0"
     fit-margin-left="0"
     fit-margin-right="0"
     fit-margin-bottom="0" />
  <g
     id="g4622"
     transform="matrix(1.1614067,0,0,1.1614067,-43.304519,-985.94443)">
    <path
       style="fill:#4dac4e"
       d="m 249.78627,1277.8265 c -43.12287,-3.1921 -74.78667,-11.9259 -110.26015,-30.413 -21.78398,-11.3528 -38.6749,-23.6964 -54.739854,-40.0031 -13.006944,-13.2027 -21.872309,-25.6982 -30.499239,-42.9878 -12.189112,-24.4287 -17.000761,-46.1379 -17.000761,-76.7042 0,-32.9858 5.549359,-58.8134 17.776002,-82.7326 19.540755,-38.22784 55.787422,-62.63158 106.224002,-71.51728 5.225,-0.92052 10.85,-2.01426 12.5,-2.43054 2.98326,-0.75264 2.96393,-0.77529 -3.46409,-4.05858 -8.67359,-4.43026 -18.29495,-13.80623 -22.10089,-21.53719 -1.65367,-3.35908 -3.88464,-10.36265 -4.95771,-15.5635 -3.03407,-14.70521 -2.46286,-17.30413 2.24319,-10.20608 3.96096,5.97425 9.7934,11.05952 14.7206,12.83482 3.3137,1.19395 10.15817,1.8512 25.0589,2.40632 21.22796,0.79086 26.96998,1.80803 34.83182,6.17028 7.68235,4.26267 14.57562,10.33045 20.95152,18.44252 3.63376,4.62324 6.94166,8.06618 7.35089,7.65098 0.40923,-0.41521 2.09013,-4.41321 3.73534,-8.88445 7.82196,-21.25803 24.7331,-48.8843 39.86283,-65.12047 3.77259,-4.04848 4.23314,-4.25 9.71286,-4.25 5.67493,0 12.55474,2.29483 12.55474,4.18776 0,0.52793 -2.47812,3.88094 -5.50694,7.45114 -7.94141,9.36089 -13.14299,17.35225 -18.05499,27.73849 -6.18404,13.07592 -12.40374,35.62746 -9.82399,35.62007 0.48725,-10e-4 4.26092,-2.2561 8.38592,-5.01046 4.125,-2.75435 11.1,-6.45871 15.5,-8.23189 7.70212,-3.10392 8.52129,-3.22304 22,-3.19914 11.06052,0.0196 16.20461,0.5238 24.5,2.4013 14.10828,3.19315 28.96702,3.27067 37.40655,0.19517 3.2486,-1.18384 6.0611,-2.15244 6.25,-2.15244 2.44703,0 -6.50536,15.17783 -14.56441,24.69244 -6.0938,7.19441 -7.18787,9.29951 -4.84214,9.31674 2.67079,0.0196 24.72597,11.43943 33.75,17.4752 18.23754,12.19826 30.74348,24.57078 42.47608,42.02289 18.9203,28.1438 27.47342,59.1891 26.25478,95.2969 -1.54687,45.8331 -17.92864,89.3035 -45.64093,121.112 -37.63533,43.1984 -105.99591,65.6574 -182.58993,59.9877 z"
       id="path4609"
       inkscape:connector-curvature="0" />
    <path
       style="fill:#fd3b00"
       d="m 249.78627,1277.8265 c -43.12287,-3.1921 -74.78667,-11.9259 -110.26015,-30.413 -21.78398,-11.3528 -38.6749,-23.6964 -54.739854,-40.0031 -13.006944,-13.2027 -21.872309,-25.6982 -30.499239,-42.9878 -12.189112,-24.4287 -17.000761,-46.1379 -17.000761,-76.7042 0,-32.9858 5.549359,-58.8134 17.776002,-82.7326 18.889075,-36.95294 52.982432,-60.73701 101.224002,-70.61546 14.03962,-2.8749 23.69441,-3.48449 30.96497,-1.95508 3.66316,0.77057 12.48211,2.10073 19.59766,2.95591 14.27538,1.71568 22.43737,3.35277 22.43737,4.50038 0,0.41219 -4.21093,1.02604 -9.35762,1.36411 -24.12868,1.58496 -33.23621,6.23145 -56.14238,28.64283 -8.25,8.07179 -16.88664,16.12615 -19.19254,17.89858 -4.45404,3.4236 -18.15753,10.14556 -20.6829,10.14556 -2.1446,0 -3.13754,2.05771 -1.50268,3.11407 2.51976,1.6281 20.08831,6.9598 27.78829,8.4332 15.60731,2.9866 36.34044,1.379 48.40372,-3.7529 17.93781,-7.63111 29.59045,-18.74364 43.13026,-41.13113 0.94361,-1.56022 1.91042,-2.642 2.14847,-2.40395 0.23805,0.23805 -0.51525,6.01459 -1.674,12.83676 -2.78067,16.37126 -2.3262,36.75712 1.0568,47.40392 3.71715,11.6985 9.65708,21.9434 17.64699,30.4368 7.94981,8.4506 17.46494,15.6274 19.62188,14.7997 1.59857,-0.6134 5.61821,-10.6352 9.31991,-23.2365 1.95595,-6.6584 2.78043,-12.1475 3.16895,-21.0978 0.78275,-18.0323 -1.70945,-29.21184 -11.23855,-50.41419 -2.52674,-5.62201 -4.30541,-10.50673 -3.9526,-10.85491 0.35281,-0.34819 2.95864,2.06693 5.79074,5.36693 16.275,18.96387 29.49495,30.31282 43.16726,37.05787 15.82068,7.8049 29.53644,9.6474 44.72113,6.0077 8.80153,-2.1097 22.27887,-8.4041 22.27887,-10.405 0,-0.73669 -2.69269,-2.47495 -5.98376,-3.86279 -9.22795,-3.89144 -13.92352,-7.48736 -28.51624,-21.83806 -14.12961,-13.89527 -20.04917,-18.23915 -31.25,-22.9318 -3.7125,-1.55538 -6.75,-3.03972 -6.75,-3.29855 0,-0.25882 5.9625,-0.15724 13.25,0.22575 15.89068,0.83512 23.49728,-0.22078 32.1001,-4.45594 l 6.30726,-3.10505 5.12916,2.02172 c 22.69844,8.94689 47.32802,26.05334 61.7501,42.88847 27.03421,31.55745 39.63909,68.18965 38.19424,110.99985 -1.54687,45.8331 -17.92864,89.3035 -45.64093,121.112 -37.63533,43.1984 -105.99591,65.6574 -182.58993,59.9877 z"
       id="path4607"
       inkscape:connector-curvature="0" />
    <path
       style="fill:#da2b00"
       d="m 280.20875,1096.0521 c -22.09338,-13.4619 -32.5177,-21.8103 -41.80077,-33.4765 -6.61161,-8.3089 -12.75332,-19.8498 -16.09729,-30.2483 -1.48959,-4.632 -2.98277,-8.6963 -3.31817,-9.0317 -0.3354,-0.3354 -4.68018,1.0381 -9.65508,3.0523 -28.94186,11.7177 -58.44365,10.6131 -95.10654,-3.5608 -17.075354,-6.6014 -51.324115,-23.86521 -51.750052,-26.08576 -0.654196,-3.41053 9.339514,-15.90961 21.305418,-26.64656 10.52341,-9.44261 25.638904,-18.65903 41.000004,-24.99905 6.5328,-2.6963 27.7551,-8.79331 33.5,-9.62431 6.00461,-0.86856 18.38863,-3.33695 20.16878,-4.02006 0.78361,-0.3007 4.58189,0.1174 8.44062,0.9291 3.85873,0.81171 12.83768,2.17553 19.95323,3.03071 14.27538,1.71568 22.43737,3.35277 22.43737,4.50038 0,0.41219 -4.21093,1.02604 -9.35762,1.36411 -24.12868,1.58496 -33.23621,6.23145 -56.14238,28.64283 -8.25,8.07179 -16.88664,16.12615 -19.19254,17.89858 -4.45404,3.4236 -18.15753,10.14556 -20.6829,10.14556 -2.1446,0 -3.13754,2.05771 -1.50268,3.11407 2.51976,1.6281 20.08831,6.9598 27.78829,8.4332 15.60731,2.9866 36.34044,1.379 48.40372,-3.7529 17.93781,-7.63111 29.59045,-18.74364 43.13026,-41.13113 0.94361,-1.56022 1.91042,-2.642 2.14847,-2.40395 0.23805,0.23805 -0.51525,6.01459 -1.674,12.83676 -2.78067,16.37126 -2.3262,36.75712 1.0568,47.40392 3.71715,11.6985 9.65708,21.9434 17.64699,30.4368 7.94981,8.4506 17.46494,15.6274 19.62188,14.7997 1.59857,-0.6134 5.61821,-10.6352 9.31991,-23.2365 1.95595,-6.6584 2.78043,-12.1475 3.16895,-21.0978 0.78275,-18.0323 -1.70945,-29.21184 -11.23855,-50.41419 -2.52674,-5.62201 -4.30541,-10.50673 -3.9526,-10.85491 0.35281,-0.34819 2.95864,2.06693 5.79074,5.36693 16.275,18.96387 29.49495,30.31282 43.16726,37.05787 15.82068,7.8049 29.53644,9.6474 44.72113,6.0077 8.80153,-2.1097 22.27887,-8.4041 22.27887,-10.405 0,-0.73669 -2.69269,-2.47495 -5.98376,-3.86279 -9.22795,-3.89144 -13.92352,-7.48736 -28.51624,-21.83806 -14.12961,-13.89527 -20.04917,-18.23915 -31.25,-22.9318 -3.7125,-1.55538 -6.75,-3.03972 -6.75,-3.29855 0,-0.25882 5.9625,-0.15724 13.25,0.22575 15.87586,0.83434 23.62333,-0.23631 32,-4.42218 3.36447,-1.68125 6.37209,-2.69348 6.68361,-2.24942 0.31151,0.44407 4.61639,2.5763 9.56639,4.7383 19.06176,8.32556 34.79085,19.03042 49.37902,33.60625 10.01406,10.0056 13.5233,14.41195 12.6295,15.85815 -0.90652,1.46677 -18.60824,13.21285 -32.11556,21.31045 -18.49653,11.0887 -30.11151,15.5263 -46.56572,17.7911 -11.42042,1.5719 -23.79838,0.027 -37.70223,-4.7061 -5.70625,-1.9424 -10.70029,-3.1604 -11.09787,-2.7067 -0.39758,0.4538 -1.27967,4.2 -1.96019,8.325 -2.36418,14.3305 -6.12444,25.8396 -15.8459,48.5 -6.24854,14.5652 -7.78489,17.5189 -9.09349,17.4827 -0.34516,-0.01 -4.93744,-2.6435 -10.20508,-5.8532 z"
       id="path4605"
       inkscape:connector-curvature="0" />
  </g>
</svg>
